<mxfile host="app.diagrams.net" modified="2022-12-26T19:25:48.856Z" agent="5.0 (Windows NT 10.0; Win64; x64) AppleWebKit/537.36 (KHTML, like Gecko) Chrome/108.0.0.0 Safari/537.36" etag="50f9sqDLu88eKQBkXa68" version="20.7.4" type="github">
  <diagram id="C5RBs43oDa-KdzZeNtuy" name="Page-1">
    <mxGraphModel dx="751" dy="501" grid="1" gridSize="10" guides="1" tooltips="1" connect="1" arrows="1" fold="1" page="1" pageScale="1" pageWidth="827" pageHeight="1169" math="0" shadow="0">
      <root>
        <mxCell id="WIyWlLk6GJQsqaUBKTNV-0" />
        <mxCell id="WIyWlLk6GJQsqaUBKTNV-1" parent="WIyWlLk6GJQsqaUBKTNV-0" />
        <mxCell id="rKTiH1gIgsxvyk_P-MJV-11" value="" style="edgeStyle=orthogonalEdgeStyle;rounded=0;orthogonalLoop=1;jettySize=auto;html=1;endArrow=blockThin;endFill=1;" edge="1" parent="WIyWlLk6GJQsqaUBKTNV-1" source="rKTiH1gIgsxvyk_P-MJV-8" target="rKTiH1gIgsxvyk_P-MJV-10">
          <mxGeometry relative="1" as="geometry" />
        </mxCell>
        <mxCell id="rKTiH1gIgsxvyk_P-MJV-8" value="Creates a Secret Santa Group" style="rounded=1;whiteSpace=wrap;html=1;" vertex="1" parent="WIyWlLk6GJQsqaUBKTNV-1">
          <mxGeometry x="40" y="60" width="120" height="60" as="geometry" />
        </mxCell>
        <mxCell id="rKTiH1gIgsxvyk_P-MJV-9" value="User" style="text;html=1;strokeColor=none;fillColor=none;align=center;verticalAlign=middle;whiteSpace=wrap;rounded=0;" vertex="1" parent="WIyWlLk6GJQsqaUBKTNV-1">
          <mxGeometry x="70" y="20" width="60" height="30" as="geometry" />
        </mxCell>
        <mxCell id="rKTiH1gIgsxvyk_P-MJV-13" value="" style="edgeStyle=orthogonalEdgeStyle;rounded=0;orthogonalLoop=1;jettySize=auto;html=1;endArrow=blockThin;endFill=1;" edge="1" parent="WIyWlLk6GJQsqaUBKTNV-1" source="rKTiH1gIgsxvyk_P-MJV-10" target="rKTiH1gIgsxvyk_P-MJV-12">
          <mxGeometry relative="1" as="geometry" />
        </mxCell>
        <mxCell id="rKTiH1gIgsxvyk_P-MJV-10" value="Adds emails of Santas" style="whiteSpace=wrap;html=1;rounded=1;" vertex="1" parent="WIyWlLk6GJQsqaUBKTNV-1">
          <mxGeometry x="40" y="130" width="120" height="60" as="geometry" />
        </mxCell>
        <mxCell id="rKTiH1gIgsxvyk_P-MJV-12" value="Shuffles to send out assigned gifters to emails" style="whiteSpace=wrap;html=1;rounded=1;" vertex="1" parent="WIyWlLk6GJQsqaUBKTNV-1">
          <mxGeometry x="40" y="200" width="120" height="60" as="geometry" />
        </mxCell>
      </root>
    </mxGraphModel>
  </diagram>
</mxfile>
